<svg width="19" height="19" viewBox="0 0 19 19" fill="none" xmlns="http://www.w3.org/2000/svg">
<path d="M9.5 0C14.7467 0 19 4.25329 19 9.5C19 14.7467 14.7467 19 9.5 19C4.25329 19 0 14.7467 0 9.5C0 4.25329 4.25329 0 9.5 0ZM9.5 1.425C5.0403 1.425 1.425 5.0403 1.425 9.5C1.425 13.9597 5.0403 17.575 9.5 17.575C13.9597 17.575 17.575 13.9597 17.575 9.5C17.575 5.0403 13.9597 1.425 9.5 1.425ZM9.5 4.75C9.89349 4.75 10.2125 5.069 10.2125 5.4625V8.7875H13.5375C13.931 8.7875 14.25 9.10651 14.25 9.5C14.25 9.89349 13.931 10.2125 13.5375 10.2125H10.2125V13.5375C10.2125 13.931 9.89349 14.25 9.5 14.25C9.10651 14.25 8.7875 13.931 8.7875 13.5375V10.2125H5.4625C5.069 10.2125 4.75 9.89349 4.75 9.5C4.75 9.10651 5.069 8.7875 5.4625 8.7875H8.7875V5.4625C8.7875 5.069 9.10651 4.75 9.5 4.75Z" fill="black"/>
</svg>
