<svg width="20" height="20" viewBox="0 0 20 20" fill="none" xmlns="http://www.w3.org/2000/svg">
<path d="M10 -1.74846e-06C4.47715 -7.8281e-07 7.8281e-07 4.47715 1.74846e-06 10C2.71409e-06 15.5228 4.47715 20 10 20C15.5228 20 20 15.5228 20 10C20 4.47715 15.5228 -2.71409e-06 10 -1.74846e-06ZM10.2801 14.5307C10.0138 14.797 9.5972 14.8212 9.3036 14.6033L9.2195 14.5307L5.21863 10.5299C4.95233 10.2636 4.92816 9.8468 5.14609 9.5532L5.21873 9.4691L9.2203 5.46911C9.5132 5.17628 9.9881 5.17637 10.2809 5.46931C10.5471 5.73563 10.5713 6.1523 10.3534 6.44587L10.2807 6.52997L7.55878 9.2507L14.2505 9.2504C14.6302 9.2504 14.944 9.5325 14.9936 9.8986L15.0005 10.0004C15.0005 10.3801 14.7183 10.6939 14.3523 10.7435L14.2505 10.7504L7.56078 10.7507L10.2801 13.47C10.5464 13.7363 10.5706 14.153 10.3527 14.4466L10.2801 14.5307Z" fill="black"/>
</svg>
