<svg width="70" height="69" viewBox="0 0 70 69" fill="none" xmlns="http://www.w3.org/2000/svg">
<path d="M35.4526 69C54.5065 69 69.9526 53.5538 69.9526 34.5C69.9526 15.4462 54.5065 0 35.4526 0C16.3988 0 0.952637 15.4462 0.952637 34.5C0.952637 53.5538 16.3988 69 35.4526 69Z" fill="#E2AC71"/>
<path d="M33.548 44.2266C34.5304 43.8627 35.0439 44.3843 35.5372 45.0474C37.7124 47.9948 36.7905 52.4139 33.6086 54.2495C33.0507 54.573 32.4725 54.8398 31.8458 54.9571C31.4738 55.0258 31.4779 55.1673 31.6153 55.4544C31.7366 55.7051 31.8377 55.9719 31.9105 56.2428C32.0277 56.6794 31.8135 57.104 31.4253 57.2697C31.0412 57.4355 30.5722 57.298 30.3458 56.914C30.1881 56.6471 30.0628 56.36 29.9536 56.0689C29.8566 55.8102 29.7676 55.7738 29.517 55.9274C27.9684 56.8897 26.3027 57.1485 24.5318 56.7118C21.8755 56.0568 19.8701 53.6067 19.7407 50.8695C19.7124 50.2509 20.1531 49.9598 20.5817 49.608C20.2218 49.3776 19.866 49.1754 19.5385 48.9328C17.9536 47.7482 17.0965 46.1592 16.9348 44.1902C16.8943 43.7051 17.1046 43.3614 17.4887 43.1067C17.7798 42.9126 17.7232 42.7994 17.4401 42.6498C16.025 41.8897 15.0547 40.7334 14.4887 39.2374C14.2622 38.639 14.1531 38.0123 14.1127 37.3735C14.0843 36.9288 14.3108 36.6134 14.6666 36.3749C14.9374 36.1929 14.9415 36.0757 14.6302 35.9099C13.1949 35.1498 12.2286 33.9692 11.6585 32.4611C11.4321 31.8627 11.3269 31.232 11.2946 30.5932C11.2784 30.2455 11.4361 29.9706 11.7029 29.7441C12.5641 29.0123 13.5264 28.4786 14.6504 28.2805C14.9334 28.232 14.986 28.1633 14.804 27.9005C13.1302 25.4382 13.3404 22.232 15.2973 20.0083C15.552 19.7172 15.8512 19.5999 16.2353 19.6242C19.2151 19.8142 21.5924 21.8843 22.1908 24.8317C22.2474 25.1107 22.3162 25.1552 22.5426 24.9935C23.4604 24.3425 24.4914 24.0191 25.6032 23.914C26.056 23.8695 26.3957 23.9948 26.6949 24.3466C28.1706 26.1134 28.6234 28.1026 28.017 30.3183C27.9199 30.666 28.021 30.7266 28.3283 30.6619C28.8903 30.5406 29.2865 30.7711 29.6302 31.2078C30.9927 32.9423 31.4253 34.8708 30.8512 37.0056C30.7542 37.3614 30.7946 37.4827 31.1787 37.3978C31.68 37.2886 32.056 37.4706 32.3795 37.8708C33.8108 39.6255 34.2474 41.5865 33.6693 43.7778C33.641 43.891 33.6126 44.0042 33.5601 44.2266H33.548ZM20.1976 24.2859C19.5062 22.7617 18.3741 21.8196 16.7488 21.4719C16.5183 21.4234 16.3849 21.4719 16.2434 21.6741C14.3674 24.3789 15.9927 28.2724 19.2353 28.8506C19.4738 28.8951 19.6073 28.8506 19.7407 28.6444C20.6342 27.2617 20.7596 25.8061 20.2016 24.29L20.1976 24.2859ZM13.4172 32.1053C14.525 34.7253 17.711 35.7239 20.1207 34.2239C20.4604 34.0137 20.5129 33.7873 20.424 33.4274C19.7407 30.6983 16.7569 29.1458 14.1814 30.2738C12.8714 30.8479 12.9604 30.7145 13.4172 32.1053ZM30.3135 52.2886C30.4469 52.5272 30.5682 52.8102 30.738 53.077C30.8795 53.3034 31.0291 53.3196 31.2515 53.2792C34.3849 52.701 35.9738 48.9732 34.2393 46.3007C34.0291 45.9773 33.8229 45.9166 33.4873 45.9975C30.7137 46.6646 29.2137 49.608 30.3175 52.2886H30.3135ZM23.056 39.6094C22.8337 39.0352 22.49 38.5096 22.0534 38.0325C20.6019 36.4517 17.8849 36.1808 16.1585 37.4503C16.0129 37.5595 15.9118 37.6565 15.9442 37.8789C16.3728 40.7495 19.8215 42.5649 22.4011 41.2307C23.4927 40.6646 23.4442 40.8627 23.056 39.6094ZM25.8539 46.2886C25.7892 46.1592 25.68 45.9328 25.5628 45.7104C24.3458 43.4099 21.0951 42.6579 18.9887 44.1821C18.8229 44.3034 18.7299 44.4126 18.7703 44.6471C19.2676 47.5177 22.5426 49.2603 25.1666 47.9908C26.331 47.4247 26.2663 47.6026 25.8579 46.2886H25.8539ZM24.6531 38.7886C24.7905 39.0352 24.9442 39.2697 25.0534 39.5285C25.1908 39.8439 25.4213 39.8479 25.7003 39.7873C28.8256 39.1121 30.3175 35.4652 28.5749 32.7886C28.3808 32.4935 28.1989 32.4449 27.8876 32.5177C25.0897 33.1646 23.5614 36.1282 24.649 38.7927L24.6531 38.7886ZM26.0965 26.6673C26.0237 26.4813 25.862 26.2185 25.7003 25.9517C25.583 25.7576 25.4455 25.7051 25.2272 25.7414C22.114 26.2347 20.4442 30.108 22.1949 32.7401C22.4091 33.0595 22.6194 33.1121 22.955 33.0312C25.7245 32.3641 27.2366 29.3964 26.0965 26.6673ZM27.4833 45.5609C27.6207 45.8034 27.7744 46.042 27.8957 46.2927C28.021 46.5555 28.2029 46.5918 28.4698 46.5352C31.6194 45.8964 33.1517 42.2253 31.4011 39.5285C31.2151 39.2374 31.0372 39.1727 30.7218 39.2455C27.9118 39.8803 26.3674 42.8964 27.4833 45.5568V45.5609ZM28.6841 53.0689C28.4698 52.5352 28.1383 52.0177 27.7218 51.5487C26.2784 49.9355 23.5453 49.6484 21.8027 50.9261C21.6288 51.0514 21.552 51.1606 21.5924 51.3951C22.1019 54.2859 25.393 56.0083 28.0331 54.7104C29.149 54.1646 29.0763 54.3263 28.6881 53.073L28.6841 53.0689Z" fill="#030202"/>
<path d="M20.1974 24.2852C20.7554 25.8014 20.63 27.2569 19.7365 28.6396C19.599 28.8499 19.4697 28.8903 19.2311 28.8458C15.9885 28.2717 14.3672 24.3741 16.2392 21.6693C16.3807 21.4631 16.5141 21.4186 16.7446 21.4671C18.3699 21.8148 19.5061 22.7569 20.1934 24.2811L20.1974 24.2852Z" fill="#FCB753"/>
<path d="M13.417 32.1058C12.9601 30.715 12.8712 30.8484 14.1811 30.2743C16.7566 29.1462 19.7404 30.6947 20.4237 33.4279C20.5127 33.7877 20.4601 34.0101 20.1205 34.2244C17.7108 35.7244 14.5248 34.7257 13.417 32.1058Z" fill="#FCB753"/>
<path d="M30.3135 52.2888C29.2097 49.6082 30.7138 46.6648 33.4833 45.9977C33.8189 45.9168 34.0251 45.9734 34.2353 46.3009C35.9698 48.9734 34.3809 52.7012 31.2475 53.2794C31.0251 53.3198 30.8755 53.3036 30.734 53.0772C30.5682 52.8104 30.4429 52.5273 30.3095 52.2888H30.3135Z" fill="#FCB753"/>
<path d="M23.0561 39.6091C23.4442 40.8625 23.4927 40.6644 22.4011 41.2304C19.8216 42.5646 16.3728 40.7533 15.9442 37.8786C15.9119 37.6563 16.0089 37.5592 16.1585 37.4501C17.889 36.1805 20.6019 36.4514 22.0534 38.0323C22.49 38.5053 22.8337 39.035 23.0561 39.6091Z" fill="#FCB753"/>
<path d="M25.8538 46.2875C26.2622 47.6015 26.3309 47.4236 25.1625 47.9896C22.5385 49.2592 19.2636 47.5166 18.7662 44.646C18.7258 44.4115 18.8188 44.3023 18.9846 44.181C21.091 42.6568 24.3417 43.4128 25.5587 45.7093C25.676 45.9317 25.7851 46.1581 25.8498 46.2875H25.8538Z" fill="#FCB753"/>
<path d="M24.6531 38.7899C23.5655 36.1255 25.0938 33.1619 27.8916 32.515C28.203 32.4422 28.3849 32.4867 28.579 32.7859C30.3216 35.4665 28.8297 39.1134 25.7043 39.7845C25.4213 39.8452 25.1949 39.8452 25.0574 39.5258C24.9442 39.271 24.7906 39.0325 24.6571 38.7859L24.6531 38.7899Z" fill="#FCB753"/>
<path d="M26.0965 26.6671C27.2366 29.3962 25.7245 32.3639 22.955 33.031C22.6194 33.1118 22.4051 33.0593 22.1948 32.7399C20.4442 30.1078 22.114 26.2345 25.2272 25.7412C25.4455 25.7048 25.583 25.7574 25.7002 25.9515C25.862 26.2183 26.0277 26.4811 26.0965 26.6671Z" fill="#FCB753"/>
<path d="M27.4833 45.5614C26.3674 42.901 27.9118 39.8849 30.7218 39.2501C31.0372 39.1773 31.2151 39.242 31.4011 39.5331C33.1517 42.2299 31.6194 45.897 28.4698 46.5398C28.203 46.5924 28.0251 46.5601 27.8957 46.2973C27.7744 46.0466 27.6207 45.808 27.4833 45.5654V45.5614Z" fill="#FCB753"/>
<path d="M28.6841 53.0675C29.0722 54.3208 29.1409 54.1591 28.0291 54.7049C25.3889 56.0028 22.0978 54.2804 21.5884 51.3896C21.548 51.1591 21.6288 51.0499 21.7986 50.9206C23.5453 49.6429 26.2784 49.93 27.7178 51.5432C28.1383 52.0122 28.4698 52.5297 28.68 53.0634L28.6841 53.0675Z" fill="#FCB753"/>
<path d="M46.2192 39.523C45.8998 39.523 45.5763 39.523 45.2569 39.523C44.7677 39.5149 44.4564 39.2036 44.4483 38.7184C44.4442 38.2818 44.4402 37.8451 44.4483 37.4125C44.4483 37.2589 44.4079 37.1901 44.2542 37.1376C43.8661 37.0001 43.4901 36.8343 43.1141 36.6645C42.9968 36.612 42.9281 36.612 42.8351 36.705C42.5318 37.0203 42.2246 37.3236 41.9132 37.6308C41.5372 38.0028 41.0965 38.0068 40.7205 37.6349C40.2677 37.1901 39.8189 36.7413 39.3742 36.2885C39.0143 35.9206 39.0184 35.4758 39.3742 35.112C39.6814 34.8047 39.9887 34.4934 40.3 34.1901C40.3971 34.0931 40.4052 34.0203 40.3486 33.8909C40.1787 33.5149 40.017 33.1349 39.8796 32.7467C39.827 32.6012 39.7583 32.5608 39.6167 32.5648C39.1801 32.5729 38.7475 32.5688 38.3108 32.5648C37.8014 32.5608 37.5022 32.2575 37.4981 31.7481C37.4941 31.1052 37.4941 30.4624 37.4981 29.8236C37.5022 29.306 37.8095 29.0028 38.331 28.9988C38.7596 28.9988 39.1882 28.9907 39.6167 28.9988C39.7623 28.9988 39.827 28.9583 39.8796 28.8168C40.0211 28.4327 40.1828 28.0486 40.3526 27.6767C40.4132 27.5473 40.3971 27.4745 40.3 27.3815C39.9887 27.0783 39.6814 26.767 39.3782 26.4556C39.0184 26.0877 39.0143 25.651 39.3782 25.2831C39.8229 24.8303 40.2717 24.3855 40.7246 23.9368C41.0925 23.5729 41.5291 23.5688 41.9011 23.9327C42.2124 24.236 42.5238 24.5432 42.8229 24.8586C42.92 24.9597 42.9928 24.9637 43.1181 24.9071C43.5022 24.7373 43.8903 24.5796 44.2825 24.43C44.3998 24.3856 44.4483 24.3289 44.4442 24.1996C44.4362 23.7548 44.4442 23.3141 44.4442 22.8694C44.4442 22.3761 44.7475 22.0648 45.2407 22.0608C45.8998 22.0527 46.5548 22.0527 47.2138 22.0608C47.703 22.0648 48.0062 22.3842 48.0103 22.8734C48.0103 23.3101 48.0184 23.7467 48.0103 24.1794C48.0103 24.3249 48.0507 24.3936 48.1922 24.4422C48.5763 24.5837 48.9604 24.7413 49.3324 24.9112C49.4618 24.9678 49.5345 24.9556 49.6275 24.8586C49.9267 24.5513 50.23 24.2481 50.5332 23.9489C50.9254 23.5648 51.3539 23.5648 51.7421 23.9489C52.1868 24.3896 52.6316 24.8343 53.0723 25.2791C53.4362 25.647 53.4402 26.0796 53.0804 26.4556C52.7852 26.7629 52.482 27.0661 52.1707 27.3613C52.0574 27.4664 52.0413 27.5513 52.11 27.6969C52.2798 28.0608 52.4375 28.4368 52.575 28.8168C52.6275 28.9543 52.6882 29.0068 52.8337 29.0028C53.2623 28.9947 53.6909 28.9988 54.1194 29.0028C54.6491 29.0028 54.9564 29.3182 54.9564 29.8478C54.9564 30.4664 54.9564 31.085 54.9564 31.7036C54.9564 32.2737 54.6653 32.5688 54.0992 32.5688C53.6787 32.5688 53.2583 32.5729 52.8378 32.5688C52.6963 32.5688 52.6275 32.6093 52.575 32.7508C52.4335 33.1349 52.2717 33.5149 52.0979 33.8909C52.0372 34.0203 52.0494 34.0931 52.1464 34.1861C52.4537 34.4853 52.7529 34.7885 53.0561 35.0918C53.4402 35.4799 53.4442 35.9125 53.0642 36.3006C52.6235 36.7454 52.1828 37.1901 51.738 37.6308C51.362 38.0028 50.9213 38.0028 50.5453 37.6308C50.234 37.3236 49.9267 37.0203 49.6235 36.705C49.5345 36.612 49.4658 36.6079 49.3486 36.6645C48.9685 36.8384 48.5763 36.9961 48.1841 37.1457C48.0548 37.1942 48.0062 37.2548 48.0103 37.3923C48.0184 37.8128 48.0103 38.2333 48.0103 38.6537C48.0103 39.2279 47.7111 39.523 47.1289 39.5271C46.8216 39.5271 46.5184 39.5271 46.2111 39.5271L46.2192 39.523ZM49.7893 30.7939C49.7933 28.8411 48.2084 27.244 46.2556 27.236C44.2906 27.2279 42.6693 28.8289 42.6734 30.7777C42.6774 32.7508 44.2583 34.3438 46.2232 34.3559C48.176 34.368 49.7852 32.7629 49.7893 30.7979V30.7939Z" fill="#977B56"/>
<path d="M58.3527 27.5514C58.474 27.3857 58.5589 27.2603 58.6519 27.1431C58.8743 26.8641 59.2422 26.8035 59.5374 26.9854C59.8204 27.1633 59.9579 27.5393 59.7678 27.8264C59.2422 28.6188 58.6843 29.3911 58.1263 30.1876C57.5562 29.7832 57.0064 29.3951 56.4605 29.007C56.2624 28.8654 56.0603 28.728 55.8662 28.5784C55.567 28.3479 55.5023 27.9517 55.7045 27.6606C55.9147 27.3574 56.315 27.2927 56.6384 27.507C56.7436 27.5757 56.8446 27.6485 56.9498 27.7212C56.9659 27.7091 56.9821 27.697 56.9983 27.6849C56.9215 27.4504 56.8568 27.2078 56.7638 26.9773C55.0818 22.7927 52.0172 20.3466 47.5535 19.6754C47.2503 19.6309 46.9794 19.5582 46.85 19.2509C46.6438 18.7657 47.0279 18.2765 47.5697 18.3371C48.9565 18.4867 50.2867 18.8425 51.5441 19.449C54.9322 21.0905 57.1721 23.7185 58.2759 27.321C58.2961 27.3857 58.3163 27.4504 58.3527 27.5595V27.5514Z" fill="#030202"/>
<path d="M34.0898 34.0749C33.9968 34.2002 33.9119 34.3215 33.8189 34.4387C33.6006 34.7177 33.2245 34.7905 32.9375 34.6085C32.6383 34.4185 32.513 34.0263 32.7111 33.7271C33.2367 32.9509 33.7865 32.1908 34.3445 31.4023C34.7205 31.6692 35.0803 31.9239 35.4402 32.1827C35.8122 32.4495 36.1882 32.7123 36.5601 32.9792C36.8998 33.2258 36.9806 33.6301 36.7542 33.9414C36.5318 34.2487 36.1356 34.2972 35.796 34.0668C35.703 34.0021 35.61 33.9374 35.4725 33.8403C35.4927 33.9536 35.4968 34.0182 35.517 34.0749C36.9887 38.3484 39.9361 40.9441 44.3714 41.8377C44.5817 41.8781 44.796 41.9023 45.0062 41.9266C45.4186 41.9751 45.6935 42.2703 45.6652 42.6341C45.6369 43.0304 45.3216 43.2891 44.8809 43.2487C43.6235 43.1234 42.4146 42.812 41.2623 42.2945C37.7084 40.6934 35.3472 38.029 34.1949 34.3013C34.1787 34.2447 34.1585 34.184 34.1383 34.1274C34.1343 34.1153 34.1181 34.1032 34.0898 34.0708V34.0749Z" fill="#030202"/>
<path d="M45.5967 18.93C45.0589 19.6861 44.5333 20.4381 43.9916 21.178C43.7692 21.4813 43.3608 21.5298 43.0738 21.3155C42.7786 21.0931 42.7139 20.7211 42.9242 20.3977C42.9929 20.2885 43.0697 20.1875 43.1789 20.0298C43.0657 20.054 43.005 20.0581 42.9444 20.0783C39.3743 21.2508 36.9404 23.612 35.6385 27.1335C35.3474 27.926 35.1775 28.7467 35.0846 29.5837C35.0401 29.992 34.7449 30.2467 34.3608 30.2184C33.9808 30.1901 33.722 29.891 33.7625 29.4705C33.8554 28.4637 34.0738 27.4772 34.4377 26.5311C35.9498 22.585 38.7274 19.9853 42.7705 18.736C42.8191 18.7198 42.8676 18.7036 42.9646 18.6713C42.8312 18.5702 42.7261 18.4893 42.6209 18.4125C42.2894 18.1659 42.2126 17.7818 42.435 17.4664C42.6492 17.1591 43.0536 17.0945 43.3891 17.329C44.1088 17.8344 44.8204 18.3478 45.536 18.8573C45.5522 18.8694 45.5643 18.8896 45.6007 18.93H45.5967Z" fill="#030202"/>
<path d="M46.8419 42.7537C47.04 42.4747 47.2179 42.2281 47.3918 41.9814C47.7476 41.4841 48.0993 40.9828 48.4592 40.4895C48.633 40.2469 48.8837 40.162 49.1667 40.2348C49.4376 40.3035 49.6155 40.4895 49.6398 40.7645C49.6519 40.9221 49.5913 41.0879 49.5387 41.2415C49.5064 41.3345 49.4295 41.4154 49.3729 41.5003C49.3851 41.5165 49.3972 41.5367 49.4053 41.5529C49.7692 41.4194 50.1371 41.3103 50.4888 41.1566C54.164 39.5353 56.4201 36.7577 57.2409 32.8238C57.2975 32.5488 57.3298 32.2658 57.3702 31.9868C57.4309 31.5785 57.7301 31.3278 58.1101 31.3723C58.4983 31.4167 58.7368 31.7402 58.6883 32.1647C58.3891 34.7847 57.3783 37.0933 55.6357 39.0785C54.0225 40.9181 52.0293 42.1715 49.6802 42.8548C49.6074 42.875 49.5387 42.8992 49.4214 42.9397C49.5913 43.065 49.7287 43.162 49.8622 43.2631C50.1694 43.4976 50.2382 43.8979 50.0239 44.1971C49.8136 44.4882 49.4174 44.565 49.1061 44.3507C48.3783 43.8453 47.6586 43.3278 46.9349 42.8143C46.9107 42.7982 46.8824 42.786 46.8379 42.7618L46.8419 42.7537Z" fill="#030202"/>
<path d="M49.7892 30.7964C49.7852 32.7614 48.176 34.3665 46.2232 34.3544C44.2583 34.3422 42.6774 32.7492 42.6733 30.7762C42.6693 28.8314 44.2906 27.2263 46.2556 27.2344C48.2084 27.2425 49.7973 28.8436 49.7892 30.7924V30.7964Z" fill="#FCB753"/>
</svg>
