<svg width="68" height="66" viewBox="0 0 68 66" fill="none" xmlns="http://www.w3.org/2000/svg">
<path d="M34.1335 65.388C52.1899 65.388 66.8275 50.7504 66.8275 32.694C66.8275 14.6376 52.1899 0 34.1335 0C16.0771 0 1.43945 14.6376 1.43945 32.694C1.43945 50.7504 16.0771 65.388 34.1335 65.388Z" fill="#E2AC71"/>
<path d="M34.5091 14.0169C34.6892 13.7793 34.8501 13.5571 35.0187 13.3425C35.7275 12.4383 36.8272 12.2889 37.7467 12.9747C38.172 13.2927 38.5896 13.6261 39.0111 13.9556C39.4172 14.2697 39.8234 14.5878 40.2257 14.8981C41.4019 14.0513 42.1951 14.1165 43.2066 15.1242C47.1607 19.0782 51.1147 23.0323 55.065 26.9864C56.1455 28.0669 56.1416 29.0401 55.0573 30.1244C46.697 38.4885 38.3329 46.8488 29.9726 55.2129C28.8424 56.3432 27.896 56.3394 26.7542 55.1976C22.8806 51.324 19.0184 47.4312 15.118 43.5806C14.0912 42.5691 13.8881 41.661 14.6965 40.343C16.3096 37.7184 17.7426 34.9904 19.2522 32.3045C22.7541 26.0707 26.2599 19.8369 29.7657 13.6031C30.4018 12.4728 31.4401 12.1969 32.5627 12.8559C33.2102 13.2352 33.8463 13.6261 34.5053 14.0245L34.5091 14.0169ZM28.3902 54.8566C28.6355 54.6689 28.8807 54.5233 29.0761 54.3279C37.444 45.9676 45.8043 37.6035 54.1684 29.2393C54.77 28.6378 54.77 28.45 54.1608 27.8447C50.245 23.9289 46.3331 20.0131 42.4173 16.1012C41.6778 15.3617 41.559 15.3617 40.8157 16.1012C32.5167 24.4002 24.2216 32.6992 15.9226 40.9981C15.8306 41.0901 15.7387 41.1782 15.6506 41.2702C15.3096 41.6265 15.3096 41.9752 15.6582 42.3277C19.7158 46.3852 23.7733 50.4466 27.8347 54.5003C27.9688 54.6344 28.1565 54.711 28.3902 54.8566ZM39.2678 15.741C38.513 15.151 37.7352 14.5379 36.9459 13.9402C36.6126 13.6874 36.2908 13.7563 36.0264 14.0743C35.9191 14.2008 35.8271 14.3387 35.7275 14.469C31.6623 19.8944 27.5971 25.3159 23.5319 30.7413C22.8231 31.6877 22.1181 32.6379 21.371 33.6379C27.3557 27.6531 33.2907 21.7181 39.2678 15.7372V15.741ZM20.8307 32.0593L20.938 32.1283C25.2024 26.4424 29.4631 20.7526 33.7581 15.0245C33.1528 14.6644 32.6049 14.3349 32.057 14.0092C31.3979 13.6184 31.1451 13.6874 30.7772 14.3425C27.9764 19.3311 25.1756 24.3197 22.3748 29.3045C21.8614 30.2202 21.348 31.1397 20.8307 32.0593Z" fill="black"/>
<path d="M28.3904 54.8559C28.1567 54.7103 27.969 54.6298 27.8349 54.4995C23.7735 50.4458 19.716 46.3845 15.6584 42.3269C15.3059 41.9744 15.3098 41.6258 15.6508 41.2694C15.7389 41.1775 15.8308 41.0855 15.9228 40.9974C24.2218 32.6984 32.5169 24.3994 40.8159 16.1004C41.5592 15.3571 41.6742 15.3571 42.4175 16.1004C46.3333 20.0162 50.2452 23.932 54.161 27.8439C54.7702 28.4531 54.7702 28.6371 54.1686 29.2386C45.8045 37.6027 37.4442 45.9668 29.0763 54.3271C28.8809 54.5225 28.6357 54.6681 28.3904 54.8559ZM26.9038 35.1506C26.831 39.4648 30.31 43.1277 34.7162 43.281C39.1186 43.4342 43.0803 40.0127 43.1186 35.1659C43.1531 30.7405 39.4864 27.07 35.0917 27.0508C30.5399 27.0317 26.923 30.6141 26.9077 35.1506H26.9038ZM27.0992 50.2428C24.7659 47.9094 22.4631 45.6105 20.1757 43.2925C20.0685 43.1814 20.0416 42.8978 20.0991 42.7369C20.2983 42.143 20.3788 41.5415 20.1068 40.9706C19.9229 40.5874 20.057 40.3805 20.3137 40.1277C21.9344 38.5223 23.5398 36.9054 25.1567 35.2962C25.4708 34.982 25.6241 34.6486 25.2716 34.3C24.9191 33.9513 24.5743 34.1084 24.2678 34.4188C22.4363 36.254 20.6049 38.0855 18.7696 39.9208C18.4477 40.2388 18.4018 40.5606 18.6815 40.9438C19.1297 41.5568 19.1336 42.0434 18.6891 42.6449C18.4094 43.0204 18.4362 43.3423 18.7619 43.668C21.352 46.2542 23.9383 48.8405 26.5245 51.4305C26.831 51.7371 27.1414 51.7677 27.5054 51.511C28.2065 51.0129 28.5629 51.0129 29.241 51.5072C29.5973 51.7677 29.9115 51.7447 30.2181 51.4382C32.0763 49.5761 33.9346 47.7178 35.7967 45.8596C36.1032 45.553 36.1952 45.2235 35.8695 44.9017C35.54 44.576 35.199 44.691 34.904 44.986C34.4365 45.4534 33.9691 45.9209 33.5016 46.3921C32.2181 47.6795 30.9307 48.9631 29.6472 50.2466C28.7889 49.8022 27.9651 49.7907 27.1069 50.2504L27.0992 50.2428ZM42.8849 20.1082C45.2106 22.4339 47.5019 24.7174 49.7778 27.0163C49.8965 27.1389 49.9387 27.434 49.8889 27.614C49.7203 28.2118 49.636 28.8095 49.8889 29.388C50.0421 29.7405 49.9502 29.9398 49.6973 30.1888C48.0766 31.7904 46.4674 33.4072 44.8581 35.0203C44.4635 35.4149 44.4175 35.8096 44.7394 36.0663C45.1225 36.369 45.4405 36.2042 45.747 35.8977C47.5632 34.0739 49.3831 32.254 51.2069 30.4379C51.5479 30.0968 51.613 29.7903 51.2989 29.3842C50.8506 28.8056 50.8391 28.2846 51.2835 27.729C51.6284 27.2999 51.5364 26.9819 51.1839 26.6332C48.6321 24.0891 46.0804 21.5412 43.5401 18.9894C43.1608 18.6101 42.8313 18.5603 42.3945 18.9128C41.8887 19.3227 41.3945 19.3112 40.8734 18.9587C40.2604 18.5411 40.1339 18.5488 39.6128 19.0698C37.8427 20.8362 36.0764 22.6063 34.3101 24.3764C34.1951 24.4914 34.0189 24.6255 34.015 24.7558C34.0074 25.0048 34.0304 25.3305 34.1836 25.4799C34.3139 25.6064 34.6549 25.5757 34.8771 25.5221C35.0342 25.4837 35.153 25.2922 35.2833 25.1657C36.9615 23.4914 38.6358 21.8132 40.3217 20.1235C41.1761 20.5373 42.019 20.5756 42.8773 20.1197L42.8849 20.1082ZM43.8083 24.4914C42.7738 24.4991 41.95 25.3075 41.9462 26.3305C41.9386 27.3612 42.8121 28.2233 43.8428 28.2079C44.8696 28.1964 45.6896 27.3688 45.6934 26.3497C45.6972 25.2883 44.8811 24.4837 43.8045 24.4914H43.8083ZM28.0341 44.0243C28.0418 42.9859 27.2487 42.1698 26.2142 42.1545C25.1413 42.1392 24.2984 42.9361 24.2869 43.9821C24.2754 45.0128 25.1413 45.8787 26.1758 45.8711C27.1988 45.8672 28.0303 45.0396 28.0379 44.0204L28.0341 44.0243Z" fill="#EDBE8E"/>
<path d="M39.2679 15.7437C33.2908 21.7246 27.3559 27.6596 21.3711 33.6444C22.1182 32.6443 22.8232 31.6941 23.532 30.7478C27.5972 25.3224 31.6624 19.9008 35.7276 14.4755C35.8273 14.3414 35.9231 14.2073 36.0265 14.0808C36.2909 13.7628 36.6127 13.6938 36.9461 13.9467C37.7353 14.5444 38.5093 15.1575 39.2679 15.7475V15.7437Z" fill="#EDBE8E"/>
<path d="M20.8306 32.0621C21.344 31.1425 21.8574 30.2268 22.3747 29.3073C25.1755 24.3187 27.9763 19.3301 30.7771 14.3453C31.1449 13.6901 31.3978 13.625 32.0568 14.012C32.6047 14.3377 33.1526 14.6672 33.758 15.0273C29.4667 20.7554 25.2023 26.4413 20.9378 32.1311L20.8306 32.0621Z" fill="#EDBE8E"/>
<path d="M26.9034 35.1467C26.9187 30.6102 30.5395 27.0278 35.0874 27.047C39.4783 27.0661 43.145 30.7367 43.1144 35.162C43.0799 40.0089 39.1143 43.4304 34.712 43.2771C30.3057 43.1238 26.8268 39.4609 26.8996 35.1467H26.9034ZM41.8385 35.208C41.942 31.821 39.2446 28.342 34.9916 28.296C31.3019 28.2577 28.2138 31.3574 28.1256 34.936C28.0375 38.572 30.8115 41.9821 34.9687 42.0434C38.7465 42.097 41.8308 38.9973 41.8385 35.208Z" fill="black"/>
<path d="M27.0992 50.2424C27.9574 49.7826 28.785 49.7941 29.6394 50.2386C30.923 48.955 32.2065 47.6715 33.4939 46.3841C33.9614 45.9167 34.4288 45.4454 34.8962 44.9779C35.1951 44.6829 35.5323 44.568 35.8618 44.8936C36.1874 45.2155 36.0955 45.545 35.789 45.8515C33.9269 47.7098 32.0686 49.5681 30.2103 51.4302C29.9038 51.7405 29.5896 51.7597 29.2333 51.4991C28.5551 51.0049 28.195 51.0087 27.4976 51.503C27.1375 51.7597 26.8271 51.7328 26.5168 51.4225C23.9305 48.8324 21.3443 46.2462 18.7542 43.6599C18.4285 43.3342 18.4017 43.0162 18.6814 42.6369C19.1259 42.0354 19.122 41.5488 18.6737 40.9357C18.394 40.5526 18.44 40.2346 18.7619 39.9127C20.5971 38.0813 22.4286 36.246 24.26 34.4107C24.5666 34.1004 24.9114 33.9433 25.2639 34.2919C25.6164 34.6406 25.4631 34.9778 25.1489 35.2881C23.5321 36.8974 21.9267 38.5142 20.306 40.1196C20.0492 40.3763 19.9151 40.5794 20.0991 40.9626C20.3711 41.5334 20.2906 42.1312 20.0914 42.7289C20.0378 42.8936 20.0607 43.1771 20.168 43.2844C22.4554 45.5986 24.7581 47.8975 27.0915 50.2347L27.0992 50.2424Z" fill="black"/>
<path d="M42.885 20.1083C42.0267 20.5681 41.1838 20.5298 40.3294 20.1121C38.6397 21.8018 36.9653 23.48 35.291 25.1544C35.1607 25.2846 35.0381 25.4762 34.8849 25.5107C34.6588 25.5643 34.3178 25.595 34.1914 25.4685C34.0381 25.3191 34.0151 24.9934 34.0228 24.7444C34.0228 24.6141 34.2028 24.48 34.3178 24.3651C36.0841 22.5949 37.8504 20.8248 39.6206 19.0585C40.1416 18.5412 40.2643 18.5336 40.8811 18.9474C41.4022 19.2999 41.8965 19.3113 42.4022 18.9014C42.8352 18.5489 43.1685 18.5987 43.5478 18.978C46.0881 21.5336 48.6399 24.0777 51.1916 26.6218C51.5403 26.9705 51.6323 27.2885 51.2913 27.7176C50.8468 28.2732 50.8583 28.7943 51.3066 29.3728C51.6208 29.7789 51.5556 30.0855 51.2146 30.4265C49.387 32.2426 47.5671 34.0625 45.7548 35.8863C45.4482 36.1967 45.1264 36.3614 44.7471 36.0549C44.4214 35.7982 44.4712 35.4036 44.8659 35.0089C46.4751 33.392 48.0843 31.779 49.705 30.1774C49.9579 29.9284 50.0499 29.7291 49.8966 29.3766C49.6437 28.7981 49.728 28.2042 49.8966 27.6027C49.9464 27.4226 49.9081 27.1276 49.7855 27.005C47.5134 24.7022 45.2184 22.4187 42.8926 20.0968L42.885 20.1083Z" fill="black"/>
<path d="M43.808 24.4922C44.8808 24.4846 45.7008 25.2892 45.6969 26.3505C45.6931 27.3697 44.8693 28.1973 43.8463 28.2088C42.8157 28.2203 41.9421 27.3582 41.9498 26.3314C41.9574 25.3083 42.7774 24.4961 43.8119 24.4922H43.808ZM43.9421 25.634L43.6739 25.6417C43.5168 25.8869 43.264 26.1168 43.2333 26.3773C43.1912 26.7068 43.4287 26.9482 43.8157 26.9482C44.2257 26.9482 44.4785 26.6877 44.4326 26.3467C44.4019 26.0938 44.1145 25.8716 43.9383 25.6379L43.9421 25.634Z" fill="black"/>
<path d="M28.0338 44.0264C28.0262 45.0456 27.1948 45.8694 26.1717 45.877C25.1372 45.8847 24.2713 45.0149 24.2828 43.9881C24.2943 42.9421 25.1372 42.1413 26.2101 42.1605C27.2446 42.1758 28.0415 42.9919 28.03 44.0303L28.0338 44.0264ZM26.2829 43.2946C26.1947 43.2946 26.1066 43.2946 26.0185 43.2984C25.8614 43.5437 25.6085 43.7735 25.574 44.0341C25.5319 44.3636 25.7694 44.605 26.1564 44.605C26.5664 44.605 26.8193 44.3444 26.7733 44.0034C26.7426 43.7506 26.4553 43.5283 26.279 43.2946H26.2829Z" fill="black"/>
<path d="M43.9422 25.6327C44.1146 25.8703 44.402 26.0887 44.4365 26.3416C44.4786 26.6864 44.2296 26.9469 43.8196 26.9431C43.4326 26.9431 43.1951 26.6979 43.2372 26.3722C43.2679 26.1117 43.5246 25.8818 43.6779 25.6366L43.9461 25.6289L43.9422 25.6327Z" fill="white"/>
<path d="M26.2831 43.2891C26.4555 43.5266 26.7428 43.745 26.7773 43.9979C26.8195 44.3427 26.5704 44.6033 26.1604 44.5994C25.7735 44.5994 25.5359 44.3542 25.5781 44.0285C25.6125 43.768 25.8654 43.5381 26.0225 43.2929C26.1106 43.2929 26.1988 43.2929 26.2869 43.2891H26.2831Z" fill="white"/>
<path d="M41.7966 35.2092C41.789 38.9986 38.7085 42.1021 34.9268 42.0446C30.7696 41.9833 27.9918 38.5733 28.0838 34.9372C28.1719 31.3586 31.2601 28.2589 34.9498 28.2972C39.2027 28.3432 41.9001 31.8184 41.7966 35.2054V35.2092Z" fill="white"/>
<path d="M33.5818 39.0988C33.2599 39.4206 32.9189 39.5854 32.5549 39.5854C32.1909 39.5854 31.8461 39.4206 31.5128 39.0873L30.2407 37.8152L30.7656 37.2903L32.0185 38.5432C32.2369 38.7616 32.4362 38.8727 32.6201 38.8766C32.804 38.8804 32.9764 38.8076 33.1373 38.6467C33.2982 38.4858 33.3749 38.3133 33.3672 38.1294C33.3595 37.9455 33.2484 37.7463 33.0339 37.5279L31.781 36.275L32.3021 35.7539L33.5741 37.026C33.9075 37.3593 34.0722 37.708 34.0722 38.0681C34.0722 38.4283 33.9075 38.7731 33.5856 39.095L33.5818 39.0988Z" fill="black"/>
<path d="M36.2294 36.4556C36.0493 36.6357 35.8539 36.7736 35.647 36.8656C35.4401 36.9575 35.2255 37.0074 35.0071 37.015C34.7887 37.0189 34.578 36.9844 34.3749 36.9001C34.1719 36.8196 33.9841 36.6932 33.8117 36.5208C33.6393 36.3483 33.5128 36.1606 33.4324 35.9575C33.3519 35.7545 33.3136 35.5399 33.3213 35.3215C33.3289 35.1031 33.3787 34.8886 33.4707 34.6817C33.5627 34.4748 33.7044 34.2755 33.8845 34.0954C34.0876 33.8924 34.3021 33.7468 34.5282 33.651C34.7581 33.5552 34.9918 33.5169 35.2294 33.536L35.2025 34.1874C35.0339 34.1836 34.8807 34.2104 34.7389 34.264C34.5972 34.3177 34.4707 34.4058 34.3558 34.5207C34.2447 34.6318 34.1604 34.7506 34.1067 34.8732C34.0493 34.9997 34.0224 35.1261 34.0186 35.2564C34.0186 35.3866 34.0454 35.5169 34.0952 35.6395C34.1489 35.766 34.2293 35.8809 34.3366 35.9882C34.4439 36.0955 34.5588 36.1759 34.6814 36.2257C34.8079 36.2794 34.9343 36.3062 35.0684 36.3062C35.1987 36.3062 35.329 36.2794 35.4516 36.2219C35.578 36.1683 35.693 36.084 35.8002 35.9767C35.9037 35.8732 35.988 35.7545 36.0531 35.6242C36.1183 35.4939 36.1566 35.3407 36.1681 35.1644L36.8462 35.2449C36.8156 35.4633 36.7428 35.6778 36.6317 35.8886C36.5167 36.1031 36.3788 36.2909 36.2179 36.4518L36.2294 36.4556ZM36.3098 35.6625L35.4554 34.8081L35.9343 34.3292L36.8577 35.2525L36.3098 35.6663V35.6625Z" fill="black"/>
<path d="M37.3368 35.2713L36.9651 32.9456L37.3483 33.3287L35.103 32.9571L35.7007 32.3594L37.2601 32.6276L37.0149 32.8805L36.7352 31.3287L37.3061 30.7578L37.6625 32.9724L37.287 32.5969L39.6357 32.9762L39.0265 33.5854L37.3943 33.2904L37.6356 33.049L37.9422 34.6736L37.3368 35.279V35.2713Z" fill="black"/>
</svg>
