<svg width="20" height="20" viewBox="0 0 20 20" fill="none" xmlns="http://www.w3.org/2000/svg">
<path d="M10 20C15.5229 20 20 15.5229 20 10C20 4.4772 15.5228 3.91405e-07 10 8.74228e-07C4.4772 1.35705e-06 -1.35705e-06 4.4772 -8.74228e-07 10C-3.91405e-07 15.5229 4.4772 20 10 20ZM9.7199 5.4693C9.9862 5.203 10.4028 5.1788 10.6964 5.3967L10.7805 5.4693L14.7814 9.4701C15.0477 9.7364 15.0718 10.1532 14.8539 10.4468L14.7813 10.5309L10.7797 14.5309C10.4868 14.8237 10.0119 14.8236 9.7191 14.5307C9.4529 14.2644 9.4287 13.8477 9.6466 13.5541L9.7193 13.47L12.4412 10.7493L5.7495 10.7496C5.3698 10.7496 5.056 10.4675 5.0064 10.1014L4.9995 9.9996C4.9995 9.6199 5.2817 9.3061 5.6477 9.2565L5.7495 9.2496L12.4392 9.2493L9.7199 6.53C9.4536 6.2637 9.4294 5.847 9.6473 5.5534L9.7199 5.4693Z" fill="black"/>
</svg>
