<svg width="21" height="18" viewBox="0 0 21 18" fill="none" xmlns="http://www.w3.org/2000/svg">
<g clip-path="url(#clip0_710_6871)">
<path d="M3.7443 2.8226V5.1103C3.44066 5.1103 3.14657 5.10961 2.85215 5.1103C2.43899 5.11167 2.27898 5.27481 2.27898 5.6943C2.27898 8.83608 2.27898 11.9779 2.27898 15.1196C2.27898 15.5515 2.43558 15.7105 2.86102 15.7108C7.65988 15.7108 12.4588 15.7108 17.2576 15.7108C17.6749 15.7108 17.8369 15.5494 17.8369 15.134C17.8369 11.9809 17.8369 8.82785 17.8369 5.67443C17.8369 5.28098 17.6701 5.11201 17.2781 5.11064C16.9379 5.10927 16.5978 5.11064 16.2454 5.11064V2.82328C16.9789 2.84659 17.7196 2.73109 18.4285 3.03475C19.4578 3.47515 20.1135 4.46666 20.1139 5.61205C20.1149 8.78227 20.1094 11.9525 20.1169 15.1231C20.1193 16.1009 19.7587 16.8881 18.9792 17.4731C18.5039 17.8299 17.9594 17.9978 17.3688 17.9982C12.4959 18.0006 7.62338 18.0026 2.75048 17.9975C1.20976 17.9958 0.00475845 16.7767 0.00271145 15.2272C-0.00138257 12.0111 -0.00172374 8.79529 0.00271145 5.57915C0.00475845 4.04647 1.22136 2.83254 2.74877 2.82328C3.07698 2.82123 3.40552 2.82328 3.74362 2.82328L3.7443 2.8226Z" fill="black"/>
<path d="M5.10303 5.15769H7.77403V0H12.3252V5.1457H15.0225C13.3572 7.48275 11.7159 9.78553 10.0588 12.1106C8.40417 9.78896 6.76315 7.48618 5.10337 5.15735L5.10303 5.15769Z" fill="black"/>
</g>
<defs>
<clipPath id="clip0_710_6871">
<rect width="20.1176" height="18" fill="white"/>
</clipPath>
</defs>
</svg>
