<svg width="68" height="66" viewBox="0 0 68 66" fill="none" xmlns="http://www.w3.org/2000/svg">
<path d="M34.3234 65.388C52.3798 65.388 67.0174 50.7504 67.0174 32.694C67.0174 14.6376 52.3798 0 34.3234 0C16.267 0 1.62939 14.6376 1.62939 32.694C1.62939 50.7504 16.267 65.388 34.3234 65.388Z" fill="#E2AC71"/>
<path d="M24.9515 43.6967C23.9744 43.0836 22.9859 42.4859 22.0242 41.8537C21.415 41.4552 20.8288 41.0185 20.2579 40.5663C18.936 39.5242 18.5222 38.1602 18.8977 36.5433C19.6525 33.2904 21.005 30.2788 22.5951 27.3669C23.6143 25.501 24.7446 23.704 26.1584 22.1063C26.3883 21.8457 26.6373 21.5967 26.894 21.3668C28.0205 20.3553 29.3232 20.1675 30.6106 20.9607C32.1585 21.9185 33.6604 22.953 35.1547 23.9914C35.9402 24.5393 36.2122 25.3592 36.239 26.3056C36.3156 28.7922 36.4382 31.275 36.5225 33.7616C36.5532 34.6467 36.8904 35.2904 37.649 35.8C39.2122 36.8536 40.7218 37.9878 42.2583 39.0759C43.5456 39.9878 43.7334 41.7886 42.6376 42.8346C41.8445 43.5932 40.5954 43.7465 39.7027 43.1143C37.7908 41.7579 35.9248 40.3364 34.0014 38.9954C32.8482 38.1908 32.2926 37.072 32.0665 35.7463C31.8941 34.7502 31.7638 33.7425 31.5991 32.6352C30.4343 34.8996 29.2964 37.1065 28.1393 39.3556C29.0243 39.846 29.9056 40.3096 30.76 40.8154C32.1776 41.6506 33.5876 42.5012 34.9823 43.3786C35.3539 43.6124 35.6796 43.9304 35.99 44.2446C36.7984 45.0645 37.0283 46.0339 36.6528 47.1297C36.2735 48.237 35.4651 48.8577 34.3348 49.0722C34.0244 49.1335 33.7064 49.1565 33.3884 49.1565C27.8557 49.1603 22.3231 49.1642 16.7904 49.1565C14.8555 49.1565 13.5528 47.4937 14.0739 45.7082C14.4149 44.5358 15.4379 43.8001 16.7713 43.7963C19.323 43.7886 21.8748 43.7963 24.4304 43.7963C24.599 43.7963 24.7676 43.7963 24.9361 43.7963C24.9361 43.7656 24.9438 43.7311 24.9438 43.7005L24.9515 43.6967Z" fill="#EDBE8E" stroke="black" stroke-width="1.03067" stroke-miterlimit="10"/>
<path d="M48.2239 40.507C47.0553 42.0855 46.289 43.802 46.2047 45.7331C47.5878 46.0319 48.9327 46.304 50.2661 46.622C50.971 46.7906 51.6607 47.0396 52.3504 47.2695C52.8715 47.4458 53.1627 47.8711 53.0822 48.2925C53.0017 48.7102 52.6301 48.9669 52.0669 48.9669C47.7373 48.9669 43.4115 48.9707 39.082 48.9669C38.5034 48.9669 38.1203 48.6795 38.0551 48.2389C37.99 47.7906 38.2927 47.373 38.8329 47.1852C40.8866 46.4726 42.9748 45.9055 45.1587 45.7293C45.2545 45.1277 45.3541 44.5377 45.4307 43.9476C45.4461 43.8403 45.3771 43.7024 45.3081 43.6066C44.7602 42.8327 44.2085 42.0549 43.6338 41.3001C43.5571 41.2005 43.3272 41.1775 43.1702 41.189C42.9862 41.2005 42.8062 41.2962 42.6223 41.3384C41.1855 41.6564 40.1854 41.166 39.6375 39.8173C38.9632 38.1621 38.9402 36.4188 39.0283 34.6678C39.0513 34.2348 39.4728 34.0662 39.7755 34.3728C40.7678 35.3766 42.0322 35.936 43.243 36.5873C43.7257 36.8479 44.2047 37.1506 44.6031 37.5261C45.2966 38.1812 45.3618 39.2196 44.8024 39.9016C43.925 39.0701 42.9364 38.4111 41.7487 38.0778C43.3541 39.3192 44.6529 40.8326 45.8407 42.5606C46.902 39.9974 48.6607 38.097 50.9097 36.5682C50.2277 36.5682 49.1703 37.2349 46.7334 39.1583C45.8522 38.1774 45.8407 36.6831 46.8139 35.7214C47.312 35.231 47.9365 34.8517 48.5534 34.5069C49.4231 34.0241 50.3733 33.6754 51.2278 33.1697C52.0554 32.6831 52.7948 32.0547 53.5956 31.5145C53.7834 31.388 54.086 31.2654 54.2623 31.3306C54.4424 31.3995 54.6454 31.6984 54.6531 31.9014C54.7412 34.1773 54.6301 36.4379 53.837 38.6027C52.9979 40.8939 51.3465 41.6372 49.0362 40.8211C48.7718 40.7292 48.5112 40.6142 48.2162 40.4955L48.2239 40.507Z" fill="white" stroke="black" stroke-width="0.689666" stroke-miterlimit="10"/>
<path d="M37.3002 22.063C34.1852 22.0745 31.6297 19.5227 31.6143 16.3809C31.599 13.2659 34.1546 10.695 37.2849 10.672C40.4344 10.649 43.0015 13.2046 43.0091 16.3656C43.0168 19.5304 40.4919 22.0515 37.3002 22.063Z" fill="#EDBE8E" stroke="black" stroke-width="1.03067" stroke-miterlimit="10"/>
</svg>
