<svg width="68" height="66" viewBox="0 0 68 66" fill="none" xmlns="http://www.w3.org/2000/svg">
<g clip-path="url(#clip0_710_5737)">
<path d="M34.2263 65.3862C52.2822 65.3862 66.9194 50.749 66.9194 32.6931C66.9194 14.6372 52.2822 0 34.2263 0C16.1704 0 1.5332 14.6372 1.5332 32.6931C1.5332 50.749 16.1704 65.3862 34.2263 65.3862Z" fill="#E2AC71"/>
<path d="M43.2299 27.4865C43.3142 27.5976 43.3832 27.6857 43.4483 27.7776C43.5633 27.9309 43.5824 28.0995 43.5288 28.2834C42.9656 30.291 40.8047 31.36 38.8698 30.5899C38.3871 30.3983 37.9733 30.1109 37.6131 29.7278C37.4254 29.8926 37.3449 30.1378 37.1572 30.2948C36.9695 30.4519 36.7089 30.4673 36.5365 30.3217C36.3526 30.1722 36.3028 29.9232 36.4254 29.7086C36.502 29.5745 36.5902 29.4481 36.6821 29.3255C36.7702 29.2106 36.7971 29.1569 36.6246 29.0688C35.0921 28.3025 34.3641 26.8083 34.7205 25.1378C34.9044 24.2719 35.3909 23.5899 36.1036 23.0689C36.3718 22.8735 36.6285 23.0076 36.9082 23.0919C36.9082 22.8543 36.9005 22.6206 36.9197 22.3907C37.0078 21.3218 37.4905 20.4712 38.3411 19.8237C38.5518 19.6628 38.774 19.659 39.0039 19.7624C39.1763 19.839 39.2108 19.7854 39.2032 19.6053C39.1419 18.3908 39.5825 17.4023 40.525 16.6283C40.7702 16.4253 41.0192 16.364 41.3066 16.4943C41.4598 16.5632 41.4943 16.5249 41.4866 16.3602C41.4177 15.1073 41.8774 14.092 42.8659 13.3142C43.069 13.1533 43.2721 13.1188 43.5211 13.1993C44.0958 13.3832 44.6054 13.6667 45.0115 14.115C45.1341 14.2491 45.1763 14.1993 45.2376 14.0652C45.9004 12.5709 47.3908 11.751 49 11.9847C49.2298 12.0192 49.3793 12.1342 49.4866 12.3334C50.2643 13.8161 49.9808 15.4904 48.7586 16.6322C48.7433 16.6475 48.7279 16.6667 48.705 16.6935C48.8161 16.8008 48.9617 16.8314 49.0881 16.8965C49.5823 17.1494 49.9693 17.5211 50.2988 17.9617C50.4176 18.1226 50.4252 18.2988 50.3639 18.4904C49.9885 19.6858 49.2107 20.4865 48.0115 20.8658C47.8391 20.9195 47.7701 20.9616 47.9234 21.1149C48.295 21.4904 48.0766 21.8735 47.9119 22.2336C47.4559 23.2221 46.7011 23.8696 45.6475 24.1685C45.6092 24.18 45.5747 24.1953 45.5173 24.2183C45.5862 24.3064 45.6437 24.3792 45.7012 24.452C45.8391 24.6321 45.8736 24.8198 45.8046 25.042C45.4253 26.2374 44.6437 27.0343 43.4483 27.4175C43.387 27.4366 43.3257 27.4558 43.2338 27.4865H43.2299ZM48.4866 15.4904C48.9808 14.7357 49.0766 13.9426 48.7739 13.0997C48.7279 12.9694 48.659 12.9158 48.5134 12.9119C46.728 12.8468 45.4176 14.7203 46.0881 16.3793C46.1418 16.5096 46.1992 16.567 46.3487 16.567C47.2452 16.567 47.9578 16.1992 48.4866 15.4904ZM40.5978 17.9502C39.728 19.2413 40.207 20.9923 41.6131 21.6551C41.7855 21.7394 41.9004 21.7126 42.0307 21.5785C43.115 20.4597 42.9579 18.659 41.6897 17.7509C41.1572 17.3678 40.9694 17.4023 40.5978 17.9502ZM38.9426 24.701C39.4867 25.0918 39.7664 25.0229 40.0844 24.4252C40.1112 24.3754 40.1303 24.3217 40.161 24.2719C40.8621 22.9961 40.3257 21.3907 39.0039 20.7892C38.8507 20.7203 38.7472 20.7356 38.6284 20.8582C37.5212 21.9616 37.6706 23.7853 38.9465 24.701H38.9426ZM37.0269 24.2298C36.9043 24.1685 36.7779 24.111 36.6591 24.0459C36.5595 23.9884 36.4905 24.0076 36.4024 24.0804C35.0614 25.2221 35.4906 27.6282 37.1457 28.2412C37.253 28.2795 37.3219 28.2642 37.3986 28.1876C37.6093 27.9807 37.7741 27.747 37.9158 27.4903C38.5135 26.4137 38.0882 24.8505 37.0231 24.226L37.0269 24.2298ZM44.5211 25.5056C44.6092 25.3715 44.6858 25.2298 44.7625 25.0842C44.8353 24.9463 44.7893 24.8658 44.7012 24.77C43.5134 23.4903 41.3027 23.8773 40.6016 25.4788C40.5288 25.6474 40.5556 25.7393 40.6744 25.8543C41.797 26.9692 43.6246 26.8045 44.5249 25.5056H44.5211ZM45.3793 18.5517C45.3104 18.6705 45.2337 18.8007 45.1571 18.9348C45.0613 19.0996 45.1226 19.1992 45.2299 19.3103C46.4406 20.5632 48.613 20.157 49.3065 18.5594C49.3754 18.3984 49.3448 18.3142 49.2375 18.203C48.1264 17.0843 46.2912 17.2414 45.3755 18.5479L45.3793 18.5517ZM46.7969 22.2336C46.885 22.0957 46.9617 21.9578 47.0383 21.8122C47.1111 21.6743 47.069 21.59 46.977 21.4942C45.7854 20.2145 43.5786 20.6015 42.8774 22.1992C42.797 22.3831 42.8468 22.4789 42.9656 22.59C44.0881 23.6896 45.9004 23.5172 46.7969 22.2298V22.2336ZM42.2491 28.7623C42.3066 28.655 42.3909 28.5248 42.4636 28.3907C42.5556 28.2259 42.5058 28.1301 42.3947 28.0152C41.184 26.7623 39.0078 27.1608 38.3143 28.7585C38.2453 28.9156 38.2721 29.0037 38.3794 29.1148C39.4867 30.2335 41.3219 30.0803 42.2491 28.7623ZM43.9042 14.433C43.8238 14.3908 43.6705 14.3142 43.5211 14.2299C43.3947 14.1571 43.3027 14.1993 43.2069 14.2912C41.9387 15.4943 42.3066 17.6552 43.8966 18.3869C44.0767 18.4712 44.1839 18.4329 44.3142 18.3027C45.3946 17.1877 45.2337 15.3755 43.9081 14.433H43.9042Z" fill="#030202"/>
<path d="M48.4864 15.4903C47.9539 16.203 47.2451 16.5669 46.3485 16.5669C46.1991 16.5669 46.1416 16.5095 46.088 16.3792C45.4175 14.7202 46.7278 12.8467 48.5133 12.9118C48.6588 12.9156 48.724 12.9693 48.7738 13.0995C49.0803 13.9424 48.9845 14.7355 48.4864 15.4903Z" fill="#EDBE8E"/>
<path d="M40.5978 17.9516C40.9695 17.3999 41.1572 17.3692 41.6898 17.7524C42.9541 18.6604 43.1112 20.4612 42.0308 21.5799C41.9005 21.714 41.7894 21.7408 41.6131 21.6565C40.207 20.9899 39.7243 19.2428 40.5978 17.9516Z" fill="#EDBE8E"/>
<path d="M38.9425 24.7016C37.6667 23.7859 37.5211 21.9622 38.6245 20.8588C38.7433 20.74 38.8467 20.7209 39 20.7898C40.3218 21.3913 40.8582 22.9967 40.157 24.2725C40.1302 24.3223 40.1072 24.376 40.0804 24.4258C39.7624 25.0235 39.4827 25.0924 38.9387 24.7016H38.9425Z" fill="#EDBE8E"/>
<path d="M37.0269 24.2294C38.092 24.85 38.5173 26.4171 37.9196 27.4937C37.7779 27.7504 37.6131 27.9841 37.4024 28.191C37.3219 28.2676 37.2568 28.2829 37.1495 28.2446C35.4944 27.6278 35.0653 25.2217 36.4062 24.0838C36.4905 24.011 36.5633 23.9918 36.6629 24.0493C36.7817 24.1182 36.9081 24.1719 37.0308 24.2332L37.0269 24.2294Z" fill="#EDBE8E"/>
<path d="M44.5212 25.5043C43.6208 26.8031 41.7971 26.9678 40.6707 25.8529C40.5557 25.738 40.5251 25.646 40.5979 25.4774C41.2952 23.8759 43.5097 23.489 44.6975 24.7686C44.7856 24.8644 44.8354 24.9449 44.7588 25.0828C44.6821 25.2246 44.6055 25.3663 44.5174 25.5043H44.5212Z" fill="#EDBE8E"/>
<path d="M45.3793 18.5525C46.2911 17.246 48.1264 17.089 49.2413 18.2077C49.3486 18.315 49.3831 18.4031 49.3103 18.564C48.6168 20.1617 46.4444 20.564 45.2337 19.315C45.1264 19.2039 45.0651 19.1043 45.1609 18.9395C45.2375 18.8054 45.3141 18.6751 45.3831 18.5564L45.3793 18.5525Z" fill="#EDBE8E"/>
<path d="M46.7968 22.2322C45.9003 23.5234 44.088 23.692 42.9654 22.5924C42.8505 22.4774 42.7969 22.3855 42.8773 22.2016C43.5785 20.6 45.7892 20.2169 46.9769 21.4966C47.065 21.5924 47.111 21.6728 47.0382 21.8146C46.9616 21.9564 46.8849 22.0981 46.7968 22.236V22.2322Z" fill="#EDBE8E"/>
<path d="M42.2492 28.7642C41.322 30.0822 39.4868 30.2393 38.3795 29.1167C38.2722 29.0056 38.2454 28.9175 38.3144 28.7604C39.0078 27.1627 41.1841 26.7642 42.3948 28.0171C42.5059 28.132 42.5557 28.2316 42.4637 28.3926C42.3909 28.5267 42.3066 28.6569 42.2492 28.7642Z" fill="#EDBE8E"/>
<path d="M43.9044 14.4332C45.2301 15.3757 45.391 17.1879 44.3106 18.3028C44.1841 18.4331 44.073 18.4676 43.8929 18.3871C42.3029 17.6592 41.9351 15.4944 43.2033 14.2914C43.2991 14.1994 43.391 14.1535 43.5175 14.2301C43.6631 14.3144 43.8163 14.391 43.9006 14.4332H43.9044Z" fill="#EDBE8E"/>
<path d="M38.6324 24.6284C39.46 25.9962 38.87 27.7241 37.4102 28.2835C37.2685 28.3371 37.1765 28.3256 37.0616 28.203C35.8853 26.9349 36.3911 24.8008 38.0117 24.1993C38.1612 24.1456 38.2684 24.138 38.3834 24.2874C38.4753 24.41 38.5596 24.5364 38.6324 24.6284Z" fill="#EDBE8E"/>
<path d="M37.8624 23.2298C37.9965 23.1992 38.1038 23.1724 38.2149 23.1456C38.3988 23.1034 38.5597 23.1532 38.7053 23.272C40.303 24.5862 40.4141 26.9731 38.9429 28.4252C38.5751 28.7853 38.1498 29.0497 37.6594 29.2221C37.736 29.4597 37.9237 29.6282 37.9927 29.862C38.0617 30.0957 37.9697 30.337 37.7705 30.4367C37.5597 30.5439 37.3145 30.4903 37.1689 30.2949C37.077 30.1723 36.9965 30.042 36.9237 29.9079C36.8548 29.7853 36.8165 29.7355 36.6709 29.8581C35.3605 30.9424 33.7169 31.0114 32.3414 30.019C31.6288 29.5056 31.1997 28.793 31.0158 27.9386C30.9468 27.6168 31.169 27.4367 31.3568 27.2183C31.1422 27.1187 30.9276 27.0382 30.7246 26.931C29.7897 26.4252 29.2074 25.6474 28.9583 24.6168C28.897 24.3639 28.9813 24.1609 29.1652 23.9923C29.3031 23.8659 29.2687 23.8122 29.1039 23.7509C27.9775 23.3218 27.2534 22.5249 26.9239 21.364C26.8357 21.0613 26.8817 20.8123 27.1116 20.6015C27.2342 20.4904 27.215 20.4406 27.0618 20.3831C25.8932 19.9464 25.1576 19.1265 24.8434 17.9157C24.7783 17.6667 24.8281 17.4713 25.0005 17.2759C25.3951 16.8276 25.8587 16.479 26.4258 16.2874C26.5982 16.2299 26.5675 16.1725 26.4679 16.0652C25.3722 14.8698 25.2227 13.1878 26.0771 11.8162C26.1997 11.6208 26.3645 11.5327 26.5905 11.5135C28.2457 11.3986 29.6595 12.3219 30.2035 13.889C30.2112 13.912 30.2227 13.9311 30.238 13.9618C30.3798 13.9043 30.464 13.7817 30.5752 13.6936C31.0004 13.3449 31.4947 13.138 32.0234 13.0192C32.215 12.9771 32.3797 13.0384 32.5292 13.1687C33.4678 13.9886 33.8855 15.0116 33.7475 16.2529C33.7284 16.4292 33.7399 16.5096 33.9391 16.433C34.4295 16.2453 34.6901 16.5977 34.9506 16.8889C35.6671 17.6974 35.9544 18.6437 35.8088 19.7165C35.805 19.7548 35.805 19.7931 35.8011 19.8544C35.9084 19.8276 35.9965 19.8046 36.0885 19.7816C36.3069 19.728 36.4908 19.7701 36.667 19.9234C37.6019 20.7433 38.0118 21.7701 37.8854 23.0115C37.8777 23.0728 37.8739 23.1379 37.8624 23.2337V23.2298ZM29.0618 13.6706C28.5752 12.9196 27.8932 12.5173 27.0043 12.456C26.8664 12.4484 26.7936 12.4867 26.7285 12.617C25.9584 14.2146 27.1384 16.1495 28.9123 16.2031C29.0503 16.2069 29.1269 16.1763 29.1844 16.0422C29.5407 15.2261 29.4909 14.4369 29.0579 13.6706H29.0618ZM28.1537 21.8161C28.9813 23.1226 30.7629 23.3831 31.9276 22.3716C32.0732 22.2452 32.0924 22.1341 32.0234 21.9617C31.441 20.5326 29.7399 19.9579 28.4104 20.7433C27.8472 21.0766 27.8051 21.2605 28.1576 21.8161H28.1537ZM33.6249 26.0153C34.1958 25.6781 34.2456 25.3946 33.8318 24.8658C33.7973 24.8199 33.759 24.7816 33.7245 24.7356C32.8472 23.59 31.1729 23.4367 30.0962 24.3984C29.9736 24.5095 29.9468 24.613 30.0081 24.7662C30.5713 26.2107 32.284 26.8045 33.6249 26.0114V26.0153ZM32.4295 27.567C32.3261 27.6551 32.2226 27.747 32.1154 27.8275C32.0234 27.8965 32.0119 27.9654 32.0464 28.0727C32.5483 29.7432 34.9046 30.3141 36.123 29.0574C36.1996 28.9769 36.2149 28.9079 36.1766 28.8045C36.0732 28.5325 35.9276 28.2911 35.7513 28.0574C35.0119 27.0842 33.4219 26.8467 32.4334 27.567H32.4295ZM36.5751 21.2682C36.487 21.1341 36.3873 21.0077 36.2877 20.8812C36.1919 20.7586 36.1 20.7701 35.9774 20.8123C34.3414 21.3831 33.8127 23.544 34.9889 24.8199C35.1115 24.954 35.2073 24.9655 35.3567 24.9042C36.8165 24.3256 37.395 22.6015 36.5751 21.2682ZM30.602 17.7127C30.6824 17.82 30.7706 17.9464 30.8625 18.0652C30.9736 18.2184 31.0886 18.2031 31.2342 18.1495C32.8548 17.5479 33.3529 15.4139 32.1767 14.1457C32.0579 14.0192 31.9659 14.0154 31.828 14.069C30.3683 14.6361 29.7782 16.364 30.602 17.7127ZM34.5138 17.8927C34.4257 17.7587 34.3299 17.6322 34.2265 17.5058C34.1307 17.3832 34.0387 17.3908 33.9161 17.433C32.2801 18.0039 31.7476 20.1648 32.9238 21.4406C33.0579 21.5862 33.1652 21.5785 33.3146 21.5172C34.759 20.9349 35.3299 19.2184 34.5138 17.8889V17.8927ZM38.6325 24.6283C38.5559 24.5325 38.4754 24.4061 38.3835 24.2873C38.2724 24.1417 38.1613 24.1455 38.0118 24.1992C36.3912 24.8007 35.8893 26.9348 37.0617 28.203C37.1766 28.3256 37.2686 28.3409 37.4103 28.2834C38.8701 27.724 39.4601 25.9923 38.6325 24.6283ZM26.2725 17.41C26.1997 17.4675 26.0695 17.5747 25.9354 17.6744C25.8166 17.7625 25.8204 17.8621 25.8664 17.9847C26.4526 19.613 28.5637 20.1456 29.8625 18.9924C30.0081 18.8621 30.0196 18.7471 29.9506 18.5824C29.3683 17.1571 27.6557 16.5786 26.2725 17.41Z" fill="#030202"/>
<path d="M29.0619 13.6725C29.4949 14.4388 29.5447 15.228 29.1884 16.0441C29.1309 16.1782 29.0543 16.2089 28.9163 16.205C27.1424 16.1552 25.9623 14.2166 26.7324 12.6189C26.7938 12.4886 26.8665 12.4503 27.0083 12.458C27.8972 12.5154 28.5792 12.9216 29.0658 13.6725H29.0619Z" fill="#EDBE8E"/>
<path d="M28.154 21.8169C27.8015 21.2613 27.8474 21.0774 28.4068 20.7441C29.7363 19.9586 31.4374 20.5333 32.0198 21.9624C32.0888 22.1349 32.0696 22.246 31.924 22.3724C30.7593 23.3839 28.9777 23.1233 28.1501 21.8169H28.154Z" fill="#EDBE8E"/>
<path d="M33.625 26.0149C32.2841 26.8079 30.5676 26.2141 30.0082 24.7697C29.9469 24.6126 29.9737 24.513 30.0964 24.4018C31.1691 23.4402 32.8434 23.5934 33.7247 24.739C33.7591 24.785 33.7975 24.8233 33.8319 24.8693C34.2496 25.398 34.1998 25.6777 33.625 26.0187V26.0149Z" fill="#EDBE8E"/>
<path d="M32.4295 27.5673C33.418 26.847 35.0119 27.0846 35.7475 28.0578C35.9237 28.2915 36.0693 28.5329 36.1728 28.8049C36.2111 28.9083 36.1996 28.9773 36.1191 29.0577C34.9007 30.3144 32.5445 29.7474 32.0425 28.0731C32.0119 27.9658 32.0196 27.893 32.1115 27.8279C32.2188 27.7474 32.3222 27.6555 32.4257 27.5673H32.4295Z" fill="#EDBE8E"/>
<path d="M36.5749 21.2664C37.3948 22.6036 36.8163 24.3277 35.3565 24.9024C35.2071 24.9637 35.1113 24.9522 34.9887 24.8181C33.8125 23.5423 34.3412 21.3814 35.9772 20.8105C36.0998 20.7684 36.1917 20.7569 36.2875 20.8795C36.3871 21.0059 36.4868 21.1323 36.5749 21.2664Z" fill="#EDBE8E"/>
<path d="M30.6018 17.7115C29.778 16.3628 30.368 14.631 31.8278 14.0678C31.9695 14.0142 32.0615 14.018 32.1764 14.1445C33.3527 15.4126 32.8508 17.5467 31.2339 18.1482C31.0883 18.2019 30.9772 18.2172 30.8623 18.064C30.7703 17.9414 30.6822 17.8187 30.6018 17.7115Z" fill="#EDBE8E"/>
<path d="M34.5138 17.894C35.3261 19.2235 34.759 20.9361 33.3146 21.5223C33.1652 21.5836 33.0579 21.5913 32.9238 21.4457C31.7514 20.1698 32.2801 18.0089 33.9161 17.4381C34.0387 17.3959 34.1307 17.3882 34.2265 17.5109C34.3261 17.6373 34.4219 17.7637 34.5138 17.8978V17.894Z" fill="#EDBE8E"/>
<path d="M26.2723 17.4109C27.6593 16.5795 29.3681 17.1581 29.9505 18.5833C30.0194 18.7519 30.0079 18.863 29.8623 18.9933C28.5673 20.1465 26.4563 19.6178 25.8662 17.9856C25.8202 17.8592 25.8164 17.7596 25.9352 17.6753C26.0693 17.5757 26.1996 17.4684 26.2723 17.4109Z" fill="#EDBE8E"/>
<path d="M19.9851 25.5033C19.6173 24.9554 19.1613 24.7447 18.6173 24.7064C18.4679 24.6949 18.3146 24.7064 18.1614 24.7064C16.8855 24.7064 16.7974 24.5953 16.9851 23.2926C17.0043 23.1508 17.0311 23.0742 17.1882 23.0819C17.9276 23.124 18.6748 22.9899 19.4066 23.1777C20.4372 23.4459 21.1613 24.0742 21.5981 25.0397C21.8778 25.6642 22.1383 25.714 22.6364 25.2045C23.6019 24.2121 24.7437 23.5378 26.1 23.2351C26.7321 23.0934 27.3681 23.0819 28.0118 23.0742C28.2762 23.0742 28.3413 23.147 28.349 23.4114C28.3949 24.9937 28.031 26.4535 27.1076 27.7562C27.0808 27.7945 27.0655 27.8404 27.008 27.9477C27.2225 27.9477 27.3988 27.9477 27.575 27.9477C33.165 27.9477 38.755 27.9477 44.3449 27.9477C45.3794 27.9477 46.3564 28.1393 47.2568 28.6489C47.4445 28.7561 47.6361 28.76 47.8392 28.7676C48.6476 28.7983 49.4598 28.6872 50.2644 28.8558C52.0881 29.2389 53.4521 30.8481 53.4674 32.7101C53.4866 35.599 53.4674 38.484 53.4789 41.3728C53.4789 41.6487 53.4176 41.7368 53.1226 41.7407C51.8506 41.756 51.8506 41.7675 51.8506 40.5223C51.8506 37.9706 51.8583 35.4227 51.8468 32.871C51.8391 31.4036 50.7433 30.3615 49.2453 30.4036C49.7089 31.1699 50.069 31.9592 50.1648 32.8404C50.2031 33.1737 50.2261 33.5147 50.2261 33.848C50.2299 38.5261 50.1725 43.2042 50.2529 47.8785C50.2951 50.2808 47.843 51.3804 46.3449 50.1505C46.1802 50.0164 46.092 50.1045 45.958 50.1927C45.1265 50.7405 44.253 50.821 43.3794 50.3306C42.5059 49.844 42.1151 49.0624 42.1189 48.0662C42.1266 46.6295 42.1113 45.1966 42.1266 43.7598C42.1304 43.438 42.05 43.3575 41.7205 43.3345C41.0921 43.2962 40.6055 43.4686 40.2147 43.9667C40.0615 44.1621 39.8737 44.3651 39.6553 44.4724C38.9504 44.8249 38.7435 45.3843 38.8814 46.1161C38.958 46.5222 38.778 46.6563 38.3948 46.595C38.2799 46.5758 38.1573 46.595 38.0423 46.595C37.3335 46.595 37.322 46.595 37.2684 45.9054C37.2531 45.6793 37.1688 45.6601 36.9925 45.6985C36.2876 45.8479 35.5826 45.7942 34.8853 45.6716C34.8661 45.7138 34.8393 45.7444 34.8355 45.7751C34.815 46.3217 34.529 46.595 33.9773 46.595C33.8087 46.595 33.6401 46.5873 33.4715 46.595C33.2838 46.6065 33.165 46.5529 33.211 46.3498C33.414 45.3843 33.0041 44.7406 32.188 44.2655C31.9466 44.1238 31.7627 43.8824 31.5712 43.6678C31.1689 43.2157 30.6363 43.3498 30.1459 43.369C29.893 43.3805 29.9773 43.664 29.9773 43.8288C29.9658 45.1812 29.9122 46.5337 29.9773 47.8823C30.0999 50.3038 27.5406 51.3766 26.077 50.1505C25.9084 50.0088 25.8203 50.1122 25.69 50.2003C24.8586 50.7482 23.985 50.8248 23.1115 50.3344C22.2379 49.844 21.8548 49.0624 21.8548 48.0701C21.8586 45.2847 21.8548 42.4993 21.8548 39.71C21.8548 37.9553 20.7705 36.8748 19.0158 36.871C17.6633 36.871 16.3146 36.8786 14.9622 36.871C13.5024 36.8595 12.4411 36.1852 11.8473 34.8557C11.2955 33.6296 11.5944 32.2235 12.5867 31.2159C13.9622 29.8213 15.3721 28.4611 16.7323 27.0512C17.6135 26.1393 18.6211 25.5493 19.9889 25.511L19.9851 25.5033ZM20.9429 29.2466C20.7858 29.3347 20.6977 29.2236 20.6019 29.1278C20.3644 28.8864 20.1383 28.6335 19.8816 28.4152C19.6671 28.2312 19.7054 28.1048 19.8931 27.9362C20.1498 27.7063 20.3912 27.4611 20.6939 27.1661C19.7935 27.0703 19.0081 27.1163 18.4142 27.6949C16.7897 29.2695 15.1882 30.8672 13.6135 32.4917C12.9813 33.1431 13.0963 34.1967 13.7553 34.8135C14.058 35.0932 14.2763 35.1315 14.4756 34.7139C14.5675 34.5185 14.717 34.3499 14.8396 34.166C15.5254 33.1392 15.5177 33.1507 16.5369 33.8404C16.828 34.0358 16.8089 34.1775 16.6288 34.4266C16.4526 34.6718 16.2265 34.9017 16.1499 35.2388C17.1346 35.2388 18.0771 35.2388 19.0234 35.2388C21.6594 35.2427 23.4716 37.0549 23.4755 39.6909C23.4755 41.9859 23.4755 44.2847 23.4755 46.5797C23.4755 47.1352 23.4601 47.6946 23.4831 48.2502C23.5023 48.6946 23.8548 49.0088 24.2762 49.0126C24.6938 49.0164 25.0387 48.7061 25.0885 48.2655C25.1038 48.1161 25.0961 47.9628 25.0961 47.8095C25.0961 44.5337 25.0961 41.2579 25.0961 37.9821C25.0961 36.8518 25.0961 36.8748 26.2034 36.8442C26.6134 36.8327 26.7321 36.9208 26.7321 37.3576C26.713 40.9016 26.7206 44.4494 26.7206 47.9935C26.7206 48.6371 27.0118 49.0049 27.5214 49.0126C28.0271 49.0203 28.3375 48.6486 28.3413 48.0126C28.3413 46.6448 28.3375 45.277 28.3451 43.9092C28.3528 42.9092 28.5942 41.9629 29.1382 41.1238C29.7398 40.1966 30.0041 39.2081 29.9735 38.1085C29.939 36.8135 29.9658 36.8173 31.2455 36.848C31.4984 36.8518 31.5903 36.8978 31.5941 37.1775C31.6171 38.7369 31.644 40.2886 30.6593 41.7138C31.7167 41.664 32.4026 42.1736 33.0539 42.8326C34.8125 44.6104 37.2876 44.618 39.0308 42.8326C39.7894 42.0548 40.617 41.6066 41.7166 41.71C41.8431 41.7215 42.0614 41.8135 42.1074 41.6181C42.1496 41.438 42.1955 41.2158 42.0193 41.0472C41.958 40.9897 41.8967 40.9284 41.8431 40.8671C41.0117 39.9208 40.5557 38.825 40.5097 37.5606C40.4868 36.8518 40.4906 36.8518 41.2185 36.8518C41.4025 36.8518 41.594 36.871 41.7741 36.848C42.0729 36.8097 42.1342 36.9399 42.1304 37.2158C42.1151 38.7828 42.8354 39.8939 44.207 40.6449C46.0384 41.6449 46.9541 43.2196 46.9848 45.3077C46.9963 46.254 46.9848 47.2004 46.9848 48.1429C46.9848 48.5413 47.161 48.821 47.5365 48.9628C47.8545 49.0816 48.1342 48.9896 48.3717 48.7597C48.5978 48.5413 48.6093 48.254 48.6054 47.9628C48.6054 44.5031 48.6054 41.0395 48.6054 37.5798C48.6054 37.1073 48.373 36.8659 47.9081 36.8557C46.6782 36.8327 45.6055 36.0702 45.4675 34.8595C45.3679 33.9821 44.9005 33.4611 44.3411 32.9247C44.0959 32.691 43.8622 32.4496 43.6285 32.2044C43.2568 31.8136 43.0538 31.3423 42.9503 30.8174C42.8699 30.4036 43.1572 29.8136 42.7971 29.6067C42.4522 29.4075 41.9082 29.5607 41.4523 29.5607C41.3833 29.5607 41.3143 29.5684 41.2492 29.5607C40.9542 29.5148 40.7511 29.6374 40.5442 29.8481C39.8776 30.5416 39.1918 31.2197 38.5021 31.8902C38.2224 32.1622 38.0768 32.4611 38.0538 32.8634C37.9734 34.2043 36.9006 35.2082 35.5558 35.2312C34.8968 35.2426 34.2378 35.2005 33.5826 35.2427C32.5252 35.3078 31.6976 34.9361 30.9735 34.166C29.4562 32.5492 29.031 32.691 29.1536 29.8979C29.1651 29.6412 29.0999 29.5492 28.8241 29.5531C27.7781 29.5684 26.7321 29.5646 25.6823 29.5531C25.4946 29.5531 25.349 29.5952 25.2456 29.7485C24.9659 30.1699 24.7053 30.0703 24.4486 29.7255C24.3873 29.6489 24.2992 29.5914 24.2226 29.5262C23.7207 28.9707 23.7245 28.9745 24.2532 28.4343C24.9007 27.7715 25.6287 27.1814 26.0731 26.3462C26.3298 25.8673 26.5521 25.373 26.6019 24.7983C25.6708 24.9861 24.9774 25.2581 24.3375 25.852C23.1613 26.9324 22.031 28.0665 20.9468 29.2427L20.9429 29.2466ZM38.4829 29.714C38.4446 29.6642 38.4063 29.6182 38.368 29.5684C35.9696 29.5684 33.575 29.5761 31.1765 29.5607C30.8279 29.5607 30.7934 29.691 30.7551 29.9975C30.6095 31.1469 30.9122 32.0818 31.8777 32.7714C32.0692 32.9055 32.2187 33.0971 32.3796 33.2695C32.6018 33.507 32.8738 33.6181 33.1918 33.6181C33.9504 33.6181 34.7129 33.6258 35.4715 33.6181C36.0615 33.6105 36.414 33.2657 36.437 32.6718C36.4638 31.94 36.7435 31.3308 37.2684 30.8327C37.6669 30.4534 38.0768 30.0856 38.4829 29.714ZM48.6016 34.009C48.6093 33.7024 48.5939 33.2503 48.5096 32.7982C48.184 31.1086 46.6093 29.6872 44.9311 29.5722C44.6476 29.5531 44.5633 29.6374 44.5442 29.9285C44.502 30.5454 44.6361 31.055 45.1495 31.4458C45.3488 31.599 45.502 31.8059 45.6898 31.9783C46.4369 32.6526 47.0039 33.3959 47.0154 34.4802C47.0192 35.0243 47.571 35.3001 48.2913 35.2388C48.8966 35.1852 48.4943 34.7178 48.6016 34.4572C48.6361 34.3691 48.6054 34.258 48.6054 34.009H48.6016ZM43.7396 42.2656C43.7396 44.3077 43.7319 46.2425 43.7434 48.1735C43.7434 48.6793 44.0997 49.0203 44.5595 49.0164C45.0154 49.0088 45.3488 48.6678 45.3564 48.1544C45.3679 47.1276 45.3909 46.1008 45.3449 45.0739C45.2951 43.9207 44.7741 43.0012 43.7396 42.2656Z" fill="#020202"/>
<path d="M24.2185 29.5321C24.2952 29.5972 24.3833 29.6547 24.4446 29.7313C24.7051 30.0761 24.9618 30.1758 25.2415 29.7543C25.345 29.6011 25.4906 29.5589 25.6783 29.5589C26.7243 29.5666 27.7702 29.5742 28.82 29.5589C29.0959 29.5551 29.161 29.647 29.1495 29.9037C29.0269 32.6968 29.4484 32.5589 30.9694 34.1719C31.6897 34.9382 32.5211 35.3136 33.5786 35.2485C34.2337 35.2063 34.8966 35.2485 35.5517 35.237C36.8965 35.2102 37.9693 34.2064 38.0498 32.8692C38.0728 32.4669 38.2184 32.1681 38.4981 31.896C39.1877 31.2256 39.8697 30.5474 40.5402 29.8539C40.7432 29.6432 40.9501 29.5206 41.2452 29.5666C41.3103 29.5781 41.3793 29.5666 41.4482 29.5666C41.9041 29.5666 42.4482 29.4171 42.793 29.6125C43.1532 29.8194 42.8658 30.4095 42.9463 30.8233C43.0497 31.3482 43.2528 31.8232 43.6244 32.2102C43.8581 32.4554 44.0957 32.6968 44.3371 32.9305C44.8964 33.4669 45.3639 33.988 45.4635 34.8654C45.6014 36.0722 46.6742 36.8347 47.9041 36.8615C48.3689 36.8692 48.6014 37.1105 48.6014 37.5856C48.6014 41.0454 48.6014 44.5089 48.6014 47.9686C48.6014 48.2637 48.5937 48.5472 48.3677 48.7656C48.134 48.9955 47.8543 49.0874 47.5324 48.9686C47.157 48.8269 46.9807 48.5472 46.9807 48.1487C46.9807 47.2024 46.9922 46.256 46.9807 45.3135C46.9501 43.2292 46.0344 41.6507 44.203 40.6507C42.8275 39.8998 42.1072 38.7887 42.1264 37.2217C42.1264 36.9458 42.0689 36.8194 41.77 36.8538C41.5861 36.8768 41.3984 36.8577 41.2145 36.8577C40.4865 36.8577 40.4789 36.8577 40.5057 37.5665C40.5517 38.827 41.0076 39.9266 41.839 40.8729C41.8965 40.9342 41.954 40.9956 42.0153 41.053C42.1915 41.2216 42.1455 41.44 42.1034 41.6239C42.0574 41.8193 41.8428 41.7273 41.7126 41.7158C40.613 41.6124 39.7854 42.0568 39.0268 42.8384C37.2835 44.6277 34.8085 44.6162 33.0499 42.8384C32.3985 42.1794 31.7127 41.6699 30.6552 41.7197C31.6437 40.2944 31.6131 38.7389 31.5901 37.1833C31.5863 36.9036 31.4943 36.8615 31.2414 36.8538C29.9618 36.827 29.9311 36.8194 29.9694 38.1144C30.0001 39.214 29.7357 40.2025 29.1342 41.1296C28.5901 41.9649 28.3488 42.9151 28.3411 43.9151C28.3334 45.2829 28.3411 46.6507 28.3373 48.0185C28.3373 48.6506 28.0231 49.0223 27.5174 49.0184C27.0116 49.0108 26.7166 48.6468 26.7166 47.9993C26.7166 44.4553 26.7051 40.9074 26.7281 37.3634C26.7281 36.9305 26.6093 36.8423 26.1994 36.85C25.0959 36.8807 25.0921 36.8577 25.0921 37.9879C25.0921 41.2637 25.0921 44.5396 25.0921 47.8154C25.0921 47.9686 25.1036 48.1219 25.0844 48.2713C25.0346 48.7119 24.6936 49.0223 24.2722 49.0184C23.8507 49.0146 23.5021 48.7004 23.4791 48.256C23.4523 47.7004 23.4714 47.1411 23.4714 46.5855C23.4714 44.2905 23.4714 41.9917 23.4714 39.6967C23.4714 37.0569 21.6592 35.2485 19.0194 35.2447C18.073 35.2447 17.1305 35.2447 16.1458 35.2447C16.2225 34.9075 16.4485 34.6776 16.6248 34.4324C16.8048 34.1795 16.824 34.0416 16.5328 33.8462C15.5137 33.1566 15.5213 33.1451 14.8355 34.1719C14.7129 34.3558 14.5635 34.5244 14.4715 34.7198C14.2723 35.1412 14.0539 35.1029 13.7512 34.8194C13.0922 34.2064 12.9773 33.1489 13.6095 32.4976C15.188 30.8769 16.7895 29.2792 18.4102 27.7007C19.004 27.1222 19.7895 27.0762 20.6898 27.172C20.3872 27.467 20.1458 27.7122 19.8891 27.9421C19.7014 28.1107 19.663 28.2371 19.8776 28.421C20.1343 28.6394 20.3603 28.8923 20.5979 29.1336C20.6937 29.2294 20.7818 29.3405 20.9389 29.2524C20.9695 29.5244 21.1803 29.5627 21.3833 29.5627C22.3297 29.5627 23.2722 29.5474 24.2185 29.5398V29.5321ZM19.4178 30.4018C19.4178 29.8424 19.1394 29.5627 18.5826 29.5627C18.0258 29.5627 17.764 29.8246 17.7972 30.3482C17.8304 30.8718 18.1088 31.1515 18.6324 31.1872C19.156 31.223 19.4178 30.9612 19.4178 30.4018Z" fill="#EDBE8E"/>
<path d="M38.4829 29.7158C38.0768 30.0875 37.6668 30.4553 37.2684 30.8346C36.7435 31.3327 36.4638 31.9419 36.437 32.6737C36.414 33.2675 36.0653 33.6085 35.4715 33.62C34.7129 33.6315 33.9504 33.6238 33.1918 33.62C32.8738 33.62 32.6018 33.5089 32.3796 33.2713C32.2186 33.0989 32.0654 32.9074 31.8776 32.7733C30.9083 32.0836 30.6095 31.1449 30.755 29.9994C30.7934 29.6928 30.8317 29.5587 31.1765 29.5626C33.5749 29.5779 35.9695 29.5702 38.368 29.5702C38.4063 29.62 38.4446 29.666 38.4829 29.7158Z" fill="#565656"/>
<path d="M48.6016 34.0096C48.6016 34.2587 48.6322 34.3698 48.5977 34.4579C48.4943 34.7184 48.8966 35.1859 48.2874 35.2395C47.5671 35.3008 47.0154 35.0249 47.0116 34.4809C47.0001 33.3928 46.433 32.6533 45.6859 31.979C45.4982 31.8104 45.3449 31.5997 45.1457 31.4464C44.6361 31.0556 44.4982 30.5461 44.5403 29.9292C44.5595 29.638 44.6476 29.5537 44.9273 29.5729C46.6054 29.6878 48.1801 31.1093 48.5058 32.7989C48.5939 33.251 48.6054 33.6993 48.5977 34.0096H48.6016Z" fill="#565656"/>
<path d="M24.2186 29.5325C23.2723 29.5402 22.3298 29.5555 21.3834 29.5555C21.1803 29.5555 20.9696 29.5172 20.939 29.2452C22.0232 28.0689 23.1535 26.9349 24.3297 25.8544C24.9734 25.2644 25.6669 24.9885 26.5941 24.8008C26.5443 25.3755 26.322 25.8697 26.0653 26.3487C25.6209 27.1839 24.8929 27.7778 24.2454 28.4368C23.7167 28.977 23.7129 28.9731 24.2148 29.5287L24.2186 29.5325Z" fill="white"/>
<path d="M43.7398 42.2656C44.7704 43.0012 45.2915 43.9208 45.3452 45.074C45.3911 46.097 45.3681 47.1276 45.3566 48.1544C45.3528 48.6717 45.0195 49.0127 44.5597 49.0165C44.1038 49.0242 43.7475 48.6832 43.7436 48.1736C43.7321 46.2388 43.7398 44.3039 43.7398 42.2656Z" fill="white"/>
<path d="M19.4179 30.4048C19.4179 30.9284 19.1561 31.1902 18.6325 31.1902C18.1089 31.1902 17.8304 30.9105 17.7972 30.3512C17.764 29.7918 18.0258 29.53 18.5827 29.5657C19.1395 29.6015 19.4179 29.8812 19.4179 30.4048Z" fill="#020202"/>
<path d="M42.8124 38.6605C42.7625 39.5609 42.9158 40.6643 42.7357 41.7524C42.3717 43.9057 41.1649 45.3999 39.1342 46.2045C38.8201 46.3271 38.7473 46.4765 38.7511 46.7907C38.7664 48.2083 38.7511 49.6259 38.7664 51.0435C38.7703 51.3654 38.6936 51.465 38.3565 51.4611C37.1381 51.4535 37.1381 51.4688 37.1381 50.2389C37.1381 49.1432 37.1304 48.0436 37.1458 46.9478C37.1496 46.6681 37.0806 46.5838 36.7894 46.58C35.5213 46.5647 35.5213 46.5532 35.5213 47.8022C35.5213 48.898 35.5136 49.9976 35.5289 51.0933C35.5328 51.373 35.46 51.4573 35.1726 51.4611C33.9006 51.4765 33.9006 51.488 33.9006 50.2389C33.9006 49.0589 33.8929 47.875 33.9044 46.6949C33.9044 46.4114 33.8393 46.2658 33.5596 46.1279C31.6746 45.2045 30.7091 43.6758 30.6592 41.5762C30.6439 40.8329 30.5826 40.082 30.6746 39.3502C30.8163 38.2199 30.3374 37.2506 30.0271 36.2353C29.9658 36.0284 29.8202 36.0514 29.6669 36.0514C29.28 36.0514 28.8892 36.0399 28.5022 36.0552C28.28 36.0667 28.2263 35.9901 28.2148 35.7717C28.142 34.4422 28.1382 34.4345 29.4639 34.4345C29.7704 34.4345 29.8815 34.3541 29.9658 34.0437C30.3336 32.7028 31.6554 31.8407 33.0194 32.0093C34.414 32.1855 35.4829 33.3503 35.5136 34.7602C35.5328 35.6721 35.5136 36.5839 35.5213 37.4958C35.5251 38.1854 35.8124 38.4766 36.5098 38.4766C37.1189 38.4766 37.732 38.5149 38.3297 38.4498C39.8354 38.2812 40.9695 37.1356 41.1649 35.5954C41.2032 35.2736 41.3028 35.2315 41.5863 35.2315C42.8162 35.2315 42.8162 35.2238 42.8162 36.4422C42.8162 37.1165 42.8162 37.7908 42.8162 38.6644L42.8124 38.6605ZM41.2032 38.8636C40.3718 39.5417 39.5289 39.9632 38.571 40.0513C37.8661 40.1165 37.1573 40.1011 36.4484 40.1011C34.9351 40.1011 33.9083 39.0705 33.8968 37.5609C33.8929 36.6682 33.9083 35.7717 33.8929 34.879C33.8814 34.1395 33.3412 33.607 32.6516 33.6223C31.9657 33.6376 31.46 34.1932 31.4677 34.9326C31.4792 35.6912 31.7014 36.3924 32.0654 37.0514C32.2263 37.3425 32.2838 37.6376 32.2799 37.9671C32.2684 39.2161 32.2608 40.4651 32.2799 41.7141C32.3067 43.262 33.4025 44.5608 34.9159 44.8827C35.686 45.0474 36.4638 44.9708 37.2377 44.9555C39.1572 44.921 40.7549 43.5417 41.1112 41.6528C41.2798 40.764 41.1495 39.8674 41.2032 38.8636Z" fill="#020202"/>
<path d="M41.203 38.8666C41.1494 39.8743 41.2758 40.7708 41.111 41.6559C40.7547 43.5447 39.157 44.924 37.2375 44.9585C36.4636 44.97 35.6858 45.0466 34.9157 44.8857C33.4061 44.5639 32.3065 43.2651 32.2797 41.7172C32.2567 40.4682 32.2644 39.2191 32.2797 37.9701C32.2797 37.6406 32.2261 37.3418 32.0652 37.0544C31.7012 36.3954 31.479 35.6943 31.4675 34.9357C31.456 34.1962 31.9656 33.6407 32.6514 33.6253C33.341 33.61 33.8774 34.1387 33.8927 34.882C33.9081 35.7747 33.8927 36.6713 33.8966 37.564C33.9042 39.0735 34.931 40.1003 36.4483 40.1042C37.1571 40.1042 37.8697 40.1195 38.5708 40.0544C39.5325 39.9662 40.3716 39.5448 41.203 38.8666Z" fill="white"/>
</g>
<defs>
<clipPath id="clip0_710_5737">
<rect width="65.39" height="65.39" fill="white" transform="translate(1.5332)"/>
</clipPath>
</defs>
</svg>
