<svg width="17" height="20" viewBox="0 0 17 20" fill="none" xmlns="http://www.w3.org/2000/svg">
<path d="M2.0675 3.06954L2.88298 2.53303C3.64712 2.0303 4.66476 2.21297 5.26108 2.95984L6.44763 4.44621C6.96475 5.09391 7.03343 6.00639 6.61741 6.70214L5.45993 8.63821C5.80725 9.50555 6.35422 10.3023 7.10082 11.0286C7.84748 11.7547 8.67825 12.298 9.5932 12.6584L11.3092 11.4982C11.9597 11.0584 12.8177 11.1149 13.4385 11.6383L14.8845 12.8577C15.6061 13.4661 15.804 14.5285 15.3474 15.3432L14.8582 16.2161C14.3712 17.085 13.4732 17.6019 12.5007 17.573C10.2047 17.5047 7.71634 16.0919 5.03546 13.3346C2.35066 10.5732 0.951852 7.98462 0.839038 5.56881C0.791579 4.55227 1.2589 3.60151 2.0675 3.06954Z" fill="black"/>
</svg>
