<svg width="26" height="26" viewBox="0 0 26 26" fill="none" xmlns="http://www.w3.org/2000/svg">
<path d="M3.25 14.0846C3.25 16.6705 4.27723 19.1504 6.10571 20.9789C7.93419 22.8074 10.4141 23.8346 13 23.8346C13 21.2488 11.9728 18.7688 10.1443 16.9403C8.31581 15.1119 5.83586 14.0846 3.25 14.0846ZM13 23.8346C15.5859 23.8346 18.0658 22.8074 19.8943 20.9789C21.7228 19.1504 22.75 16.6705 22.75 14.0846C20.1641 14.0846 17.6842 15.1119 15.8557 16.9403C14.0272 18.7688 13 21.2488 13 23.8346ZM19.5 3.2513V8.66797C19.5 10.3919 18.8152 12.0452 17.5962 13.2642C16.3772 14.4831 14.7239 15.168 13 15.168C11.2761 15.168 9.62279 14.4831 8.40381 13.2642C7.18482 12.0452 6.5 10.3919 6.5 8.66797V3.2513C7.30167 3.2513 8.0925 3.3813 8.84 3.6738C9.43583 3.92297 9.96667 4.2913 10.4108 4.75714L13 2.16797L15.5892 4.75714C16.0333 4.2913 16.5642 3.92297 17.16 3.6738C17.9075 3.3813 18.6983 3.2513 19.5 3.2513Z" fill="black"/>
</svg>
